<mxfile host="65bd71144e">
    <diagram id="7luQHBIn-hd0MQ_vto84" name="Page-1">
        <mxGraphModel dx="113" dy="229" grid="1" gridSize="10" guides="1" tooltips="1" connect="1" arrows="1" fold="1" page="1" pageScale="1" pageWidth="850" pageHeight="1100" background="#001933" math="0" shadow="1">
            <root>
                <mxCell id="0"/>
                <mxCell id="1" parent="0"/>
                <mxCell id="7" value="Menú/Página de inicio" style="rounded=1;whiteSpace=wrap;html=1;" vertex="1" parent="1">
                    <mxGeometry x="320" y="130" width="120" height="40" as="geometry"/>
                </mxCell>
                <mxCell id="8" value="Carrusel/slides de productos" style="rounded=1;whiteSpace=wrap;html=1;" vertex="1" parent="1">
                    <mxGeometry x="320" y="190" width="120" height="60" as="geometry"/>
                </mxCell>
                <mxCell id="9" value="Clic en botones de cambio para desplazar slides" style="rounded=1;whiteSpace=wrap;html=1;" vertex="1" parent="1">
                    <mxGeometry x="320" y="360" width="120" height="60" as="geometry"/>
                </mxCell>
                <mxCell id="10" value="Validación de clic en &lt;br style=&quot;font-size: 12px;&quot;&gt;botón de cambio" style="rhombus;whiteSpace=wrap;html=1;rounded=0;autosize=0;fixedWidth=0;fillColor=default;fontSize=12;verticalAlign=middle;" vertex="1" parent="1">
                    <mxGeometry x="300" y="452.5" width="180" height="90" as="geometry"/>
                </mxCell>
                <mxCell id="11" value="Error: Por favor, utiliza los botones de cambio para navegar por las imágenes." style="rounded=1;whiteSpace=wrap;html=1;" vertex="1" parent="1">
                    <mxGeometry x="100" y="465" width="130" height="65" as="geometry"/>
                </mxCell>
                <mxCell id="12" value="" style="endArrow=classic;html=1;entryX=0;entryY=0.5;entryDx=0;entryDy=0;exitX=0.5;exitY=0;exitDx=0;exitDy=0;" edge="1" parent="1" source="11" target="9">
                    <mxGeometry width="50" height="50" relative="1" as="geometry">
                        <mxPoint x="220" y="450" as="sourcePoint"/>
                        <mxPoint x="270" y="400" as="targetPoint"/>
                        <Array as="points">
                            <mxPoint x="165" y="390"/>
                        </Array>
                    </mxGeometry>
                </mxCell>
                <mxCell id="18" value="" style="endArrow=classic;html=1;fontSize=10;exitX=0;exitY=0.5;exitDx=0;exitDy=0;entryX=1;entryY=0.5;entryDx=0;entryDy=0;" edge="1" parent="1" source="10" target="11">
                    <mxGeometry width="50" height="50" relative="1" as="geometry">
                        <mxPoint x="280" y="550" as="sourcePoint"/>
                        <mxPoint x="330" y="500" as="targetPoint"/>
                    </mxGeometry>
                </mxCell>
                <mxCell id="19" value="Se muestra el siguiente producto de los slides" style="rounded=1;whiteSpace=wrap;html=1;fontSize=10;fillColor=default;" vertex="1" parent="1">
                    <mxGeometry x="330" y="580" width="120" height="60" as="geometry"/>
                </mxCell>
                <mxCell id="21" value="Fin" style="strokeWidth=2;html=1;shape=mxgraph.flowchart.terminator;whiteSpace=wrap;rounded=0;fontSize=10;fillColor=default;" vertex="1" parent="1">
                    <mxGeometry x="340" y="670" width="100" height="60" as="geometry"/>
                </mxCell>
                <mxCell id="22" value="Inicio" style="strokeWidth=2;html=1;shape=mxgraph.flowchart.start_1;whiteSpace=wrap;rounded=0;fontSize=10;fillColor=default;" vertex="1" parent="1">
                    <mxGeometry x="335" y="30" width="100" height="60" as="geometry"/>
                </mxCell>
                <mxCell id="23" value="" style="endArrow=classic;html=1;fontSize=10;exitX=0.5;exitY=1;exitDx=0;exitDy=0;entryX=0.5;entryY=0;entryDx=0;entryDy=0;" edge="1" parent="1" source="10" target="19">
                    <mxGeometry width="50" height="50" relative="1" as="geometry">
                        <mxPoint x="340" y="530" as="sourcePoint"/>
                        <mxPoint x="390" y="480" as="targetPoint"/>
                    </mxGeometry>
                </mxCell>
                <mxCell id="24" value="" style="endArrow=classic;html=1;fontSize=10;exitX=0.5;exitY=1;exitDx=0;exitDy=0;entryX=0.5;entryY=0;entryDx=0;entryDy=0;entryPerimeter=0;" edge="1" parent="1" source="19" target="21">
                    <mxGeometry width="50" height="50" relative="1" as="geometry">
                        <mxPoint x="370" y="700" as="sourcePoint"/>
                        <mxPoint x="390" y="680" as="targetPoint"/>
                    </mxGeometry>
                </mxCell>
                <mxCell id="25" value="" style="endArrow=classic;html=1;fontSize=10;exitX=0.58;exitY=1.007;exitDx=0;exitDy=0;exitPerimeter=0;entryX=0.5;entryY=0;entryDx=0;entryDy=0;" edge="1" parent="1" source="9" target="10">
                    <mxGeometry width="50" height="50" relative="1" as="geometry">
                        <mxPoint x="350" y="480" as="sourcePoint"/>
                        <mxPoint x="400" y="430" as="targetPoint"/>
                    </mxGeometry>
                </mxCell>
                <mxCell id="26" value="" style="endArrow=classic;html=1;fontSize=10;entryX=0.577;entryY=0;entryDx=0;entryDy=0;entryPerimeter=0;exitX=0.559;exitY=1.063;exitDx=0;exitDy=0;exitPerimeter=0;" edge="1" parent="1" source="29" target="9">
                    <mxGeometry width="50" height="50" relative="1" as="geometry">
                        <mxPoint x="389" y="330" as="sourcePoint"/>
                        <mxPoint x="400" y="350" as="targetPoint"/>
                    </mxGeometry>
                </mxCell>
                <mxCell id="27" value="" style="endArrow=classic;html=1;fontSize=10;exitX=0.593;exitY=1.04;exitDx=0;exitDy=0;exitPerimeter=0;entryX=0.593;entryY=-0.027;entryDx=0;entryDy=0;entryPerimeter=0;" edge="1" parent="1" source="7">
                    <mxGeometry width="50" height="50" relative="1" as="geometry">
                        <mxPoint x="380" y="220" as="sourcePoint"/>
                        <mxPoint x="391.15999999999997" y="188.38" as="targetPoint"/>
                    </mxGeometry>
                </mxCell>
                <mxCell id="28" value="" style="endArrow=classic;html=1;fontSize=10;exitX=0.542;exitY=1.033;exitDx=0;exitDy=0;exitPerimeter=0;entryX=0.583;entryY=0;entryDx=0;entryDy=0;entryPerimeter=0;" edge="1" parent="1" source="22" target="7">
                    <mxGeometry width="50" height="50" relative="1" as="geometry">
                        <mxPoint x="400" y="150" as="sourcePoint"/>
                        <mxPoint x="450" y="100" as="targetPoint"/>
                    </mxGeometry>
                </mxCell>
                <mxCell id="29" value="Desplazar/Mostrar&amp;nbsp; productos destacados" style="rounded=1;whiteSpace=wrap;html=1;absoluteArcSize=1;arcSize=14;strokeWidth=2;fontSize=12;fillColor=default;" vertex="1" parent="1">
                    <mxGeometry x="310" y="270" width="140" height="50" as="geometry"/>
                </mxCell>
                <mxCell id="30" value="" style="endArrow=classic;html=1;fontSize=12;exitX=0.596;exitY=1.027;exitDx=0;exitDy=0;exitPerimeter=0;entryX=0.585;entryY=0;entryDx=0;entryDy=0;entryPerimeter=0;" edge="1" parent="1" source="8" target="29">
                    <mxGeometry width="50" height="50" relative="1" as="geometry">
                        <mxPoint x="380" y="290" as="sourcePoint"/>
                        <mxPoint x="430" y="240" as="targetPoint"/>
                    </mxGeometry>
                </mxCell>
            </root>
        </mxGraphModel>
    </diagram>
</mxfile>